<?xml version="1.0" encoding="UTF-8"?>
<svg width="512" height="512" viewBox="0 0 512 512" fill="none" xmlns="http://www.w3.org/2000/svg">
    <!-- خلفية الأيقونة -->
    <rect width="512" height="512" rx="128" fill="url(#gradient)"/>
    
    <!-- الرمز الرئيسي -->
    <path d="M256 96C176.7 96 112 160.7 112 240C112 304.6 155.1 359.5 215.2 376.9L256 440L296.8 376.9C356.9 359.5 400 304.6 400 240C400 160.7 335.3 96 256 96ZM256 344C209.8 344 172 306.2 172 260C172 213.8 209.8 176 256 176C302.2 176 340 213.8 340 260C340 306.2 302.2 344 256 344Z" fill="white"/>
    
    <!-- تأثير التدرج -->
    <defs>
        <linearGradient id="gradient" x1="0" y1="0" x2="512" y2="512" gradientUnits="userSpaceOnUse">
            <stop offset="0%" style="stop-color:#0071e3"/>
            <stop offset="100%" style="stop-color:#40a9ff"/>
        </linearGradient>
    </defs>
</svg> 